<svg xmlns="http://www.w3.org/2000/svg" width="780" height="300" viewBox="0 0 780 300" role="img" aria-labelledby="title desc"><title id="title">Gray code: g(i) = i XOR (i &gt;&gt; 1)</title><desc id="desc">i | i in binary | i &gt;&gt; 1 | g(i). 0 | 00 | 00 | 00; 1 | 01 | 00 | 01; 2 | 10 | 01 | 11; 3 | 11 | 01 | 10</desc><rect width="100%" height="100%" fill="#f8fafc"/><text x="24" y="36" font-family="Arial,sans-serif" font-size="23" font-weight="bold" fill="#0f172a">Gray code: g(i) = i XOR (i &gt;&gt; 1)</text><rect x="24" y="64" width="732" height="40" rx="3" fill="#164e63"/><text x="36" y="90" font-family="Consolas,monospace" font-size="15" fill="#ffffff">i</text><text x="146" y="90" font-family="Consolas,monospace" font-size="15" fill="#ffffff">i in binary</text><text x="275" y="90" font-family="Consolas,monospace" font-size="15" fill="#ffffff">i &gt;&gt; 1</text><text x="385" y="90" font-family="Consolas,monospace" font-size="15" fill="#ffffff">g(i)</text><rect x="24" y="104" width="732" height="40" rx="3" fill="#ffffff"/><text x="36" y="130" font-family="Consolas,monospace" font-size="15" fill="#0f172a">0</text><text x="146" y="130" font-family="Consolas,monospace" font-size="15" fill="#0f172a">00</text><text x="275" y="130" font-family="Consolas,monospace" font-size="15" fill="#0f172a">00</text><text x="385" y="130" font-family="Consolas,monospace" font-size="15" fill="#0f172a">00</text><rect x="24" y="144" width="732" height="40" rx="3" fill="#e2e8f0"/><text x="36" y="170" font-family="Consolas,monospace" font-size="15" fill="#0f172a">1</text><text x="146" y="170" font-family="Consolas,monospace" font-size="15" fill="#0f172a">01</text><text x="275" y="170" font-family="Consolas,monospace" font-size="15" fill="#0f172a">00</text><text x="385" y="170" font-family="Consolas,monospace" font-size="15" fill="#0f172a">01</text><rect x="24" y="184" width="732" height="40" rx="3" fill="#ffffff"/><text x="36" y="210" font-family="Consolas,monospace" font-size="15" fill="#0f172a">2</text><text x="146" y="210" font-family="Consolas,monospace" font-size="15" fill="#0f172a">10</text><text x="275" y="210" font-family="Consolas,monospace" font-size="15" fill="#0f172a">01</text><text x="385" y="210" font-family="Consolas,monospace" font-size="15" fill="#0f172a">11</text><rect x="24" y="224" width="732" height="40" rx="3" fill="#e2e8f0"/><text x="36" y="250" font-family="Consolas,monospace" font-size="15" fill="#0f172a">3</text><text x="146" y="250" font-family="Consolas,monospace" font-size="15" fill="#0f172a">11</text><text x="275" y="250" font-family="Consolas,monospace" font-size="15" fill="#0f172a">01</text><text x="385" y="250" font-family="Consolas,monospace" font-size="15" fill="#0f172a">10</text></svg>