<svg xmlns="http://www.w3.org/2000/svg" width="900" height="410" viewBox="0 0 900 410">
  <defs><marker id="a" markerWidth="9" markerHeight="9" refX="8" refY="4.5" orient="auto"><path d="M0,0 L9,4.5 L0,9 Z" fill="#dc2626"/></marker></defs><rect width="900" height="410" fill="white"/>
  <text x="30" y="40" font-family="Arial" font-size="26" font-weight="700">Variable-length jumps from (0,0)</text>
  <g transform="translate(45 75)" stroke="#334155" stroke-width="2" fill="#f8fafc"><path d="M0 0H300V300H0Z M100 0V300 M200 0V300 M0 100H300 M0 200H300"/></g>
  <circle cx="95" cy="125" r="9" fill="#111827"/>
  <g stroke="#dc2626" stroke-width="4" fill="none" marker-end="url(#a)"><path d="M105 115H180"/><path d="M105 105H280"/><path d="M85 135V210"/><path d="M75 135V310"/><path d="M105 135L180 210"/><path d="M105 135L280 310"/></g>
  <g font-family="Arial" font-size="18" fill="#991b1b"><text x="130" y="105">h1</text><text x="225" y="95">h2</text><text x="100" y="175">v1</text><text x="65" y="265">v2</text><text x="145" y="180">d1</text><text x="220" y="270">d2</text></g>
  <g font-family="Arial" font-size="20" fill="#0f172a"><text x="405" y="105">For every direction, try radius 1, 2, …</text><text x="405" y="145">Stop increasing the radius when it leaves the grid.</text><text x="405" y="200">A path stores both direction and jump length,</text><text x="405" y="235">for example h2d1 or d2.</text></g>
</svg>
